<svg id="Layer_1" data-name="Layer 1" xmlns="http://www.w3.org/2000/svg" viewBox="0 0 512 512"><defs><style>.cls-1{fill:#fe3900;}.cls-2{fill:#7bec00;}.cls-3{fill:#043753;}.cls-4{fill:#043a57;}.cls-5{fill:#043955;}.cls-6{fill:#043b58;}.cls-7{fill:#043d5b;}.cls-8{fill:#043c5a;}.cls-9{fill:#043752;}.cls-10{fill:#043e5d;}.cls-11{fill:#054f76;}.cls-12{fill:#054c72;}.cls-13{fill:#044060;}.cls-14{fill:#044162;}.cls-15{fill:#05486c;}.cls-16{fill:#043e5e;}.cls-17{fill:#044364;}.cls-18{fill:#044567;}.cls-19{fill:#055078;}.cls-20{fill:#054a6f;}.cls-21{fill:#043f5f;}.cls-22{fill:#054d73;}.cls-23{fill:#05527b;}.cls-24{fill:#076ca2;}.cls-25{fill:#076fa6;}.cls-26{fill:#0771a9;}.cls-27{fill:#0773ac;}.cls-28{fill:#0774ae;}.cls-29{fill:#0877b2;}.cls-30{fill:#0879b5;}</style></defs><path class="cls-1" d="M0,0H512V512H0ZM12.17,342V499.83H175q44.37.09,88.73.16c24.42,0,48.85-.1,73.27-.16H499.83V337q.09-44.37.16-88.73c0-24.42-.1-48.85-.16-73.27V12.17H337q-44.87-.09-89.72-.16c-24.1,0-48.19.1-72.28.16H12.17V175a6.71,6.71,0,0,0-.13,1q0,79.31,0,158.61a19.55,19.55,0,0,0,1,4.23Z"/><path class="cls-2" d="M13,338.83a19.55,19.55,0,0,1-1-4.23Q12,255.3,12,176a6.71,6.71,0,0,1,.13-1L19,168.11l7.06-7.06L36,151.11l16-16c1.93-1.81,3.9-3.58,5.78-5.44Q75.91,111.84,94,94L94,94l-.21,81L73.89,195,56,212.89l-16,16L25.89,243,13.6,255.8l12.29,13.25L40,283.11l16,16,17.93,17.94L93.83,337,94,418,94,418c-1.35-1.21-2.76-2.36-4-3.63Q71.47,396.16,53,377.89l-15-15-11-11-7-7Z"/><path class="cls-2" d="M337,499.83c-24.42.06-48.85.16-73.27.16q-44.37,0-88.73-.16L167.11,492l-7-7-11-11-15-15c-1.81-1.93-3.59-3.9-5.45-5.79Q111.34,435.59,94,418L94,418l81,.21,4.88,4.87,14,14,16,16,13,13q5.51,5.49,11,11L256,498.16l22.15-21.11,11-11,13-13,16-16,14-14,4.88-4.87,81-.21.07.07c-1.21,1.35-2.36,2.76-3.63,4.05Q396.16,440.53,377.89,459l-15.06,15-10.95,11-8,8Z"/><path class="cls-2" d="M499.83,175c.06,24.42.16,48.85.16,73.27q0,44.37-.16,88.73L493,343.89l-8,8-11,10.95-15,15.06c-1.93,1.81-3.9,3.59-5.79,5.45Q435.59,400.67,418,418L418,418l.21-81,4.87-4.88,14-14,19-19,21.07-21.06,21-22-21-22.14L456,212.89l-19-19-14-14L418.17,175,418,94,418,94c1.35,1.21,2.76,2.36,4.05,3.63q21.45,21.24,42.88,42.51l14,14,9,9,6,6Z"/><path class="cls-2" d="M175,12.17c24.09-.06,48.18-.16,72.28-.16q44.85,0,89.72.16L342.89,18l6,6,9,9,14,14c2.75,2.87,5.48,5.78,8.27,8.61Q399.09,74.83,418,94L418,94l-81-.21L323.11,80,304.05,60.89,291.11,48l-12-12L256,13.88,232.89,36l-12,12L208,60.89,188.89,80,175,93.83,94,94,94,94c1.2-1.35,2.36-2.75,3.63-4Q116.34,71,135.11,52l16-16,9.94-9.93L168.11,19Z"/><path class="cls-2" d="M12.17,93V12.17H93c-10.89,11-21.72,22-32.67,33Q36.32,69.14,12.17,93Z"/><path class="cls-2" d="M499.83,419v80.83H419c10.77-10.88,21.48-21.8,32.31-32.62Q475.51,443,499.83,419Z"/><path class="cls-2" d="M93,499.83H12.17V419c11.11,11,22.27,22,33.33,33Q69.3,475.86,93,499.83Z"/><path class="cls-2" d="M419,12.17h80.83V93c-11-10.89-22-21.72-33-32.67Q442.86,36.32,419,12.17Z"/><path class="cls-3" d="M419,12.17q23.92,24.09,47.86,48.16c10.93,11,22,21.78,33,32.67v28c-1.42-1.3-3.27-2.34-4.19-3.92A273.53,273.53,0,0,0,394.92,16.36c-1.58-.92-2.62-2.77-3.92-4.19Z"/><path class="cls-3" d="M12.17,93Q36.26,69.07,60.33,45.14c11-10.93,21.78-22,32.67-33h28a73.71,73.71,0,0,1-5.76,5.16c-14.47,10.54-29.88,20-43.32,31.7a258.09,258.09,0,0,0-54.86,66.63c-1.17,2-3.24,3.57-4.89,5.34Z"/><path class="cls-4" d="M12.17,121c1.65-1.77,3.72-3.3,4.89-5.34A258.09,258.09,0,0,1,71.92,49c13.44-11.7,28.85-21.16,43.32-31.7A73.71,73.71,0,0,0,121,12.17h20c-2.63,1.92-5.05,4.24-7.91,5.71A263.17,263.17,0,0,0,17.21,134.43c-1.23,2.42-3.34,4.39-5,6.57Z"/><path class="cls-4" d="M391,12.17c1.3,1.42,2.34,3.27,3.92,4.19A273.53,273.53,0,0,1,495.64,117.08c.92,1.58,2.77,2.62,4.19,3.92v19c-1.46-1.7-3.3-3.19-4.32-5.12-15.64-29.72-35.3-56.24-60.56-78.62a289.31,289.31,0,0,0-58.27-40c-1.79-.93-3.13-2.71-4.68-4.09Z"/><path class="cls-5" d="M397,499.83H379c1.25-1.23,2.3-2.84,3.78-3.65,27.3-14.78,51.83-33,72.77-56.12a283,283,0,0,0,36.23-49.44c2.34-4.07,5.35-7.76,8.05-11.62v18c-2.05,2.55-4.17,5.05-6.13,7.66-10.06,13.4-19.27,27.54-30.29,40.08a257.29,257.29,0,0,1-60.44,50C400.76,496.09,399,498.12,397,499.83Z"/><path class="cls-6" d="M499.83,379c-2.7,3.86-5.71,7.55-8.05,11.62a283,283,0,0,1-36.23,49.44c-20.94,23.08-45.47,41.34-72.77,56.12-1.48.81-2.53,2.42-3.78,3.65H362c1.54-1.38,2.9-3.1,4.66-4.09,10.43-5.86,21.23-11.09,31.37-17.38a248.45,248.45,0,0,0,59.55-51.74,277.27,277.27,0,0,0,38.17-59.95c.85-1.8,2.7-3.13,4.08-4.67Z"/><path class="cls-7" d="M499.83,362c-1.38,1.54-3.23,2.87-4.08,4.67a277.27,277.27,0,0,1-38.17,59.95A248.45,248.45,0,0,1,398,478.36c-10.14,6.29-20.94,11.52-31.37,17.38-1.76,1-3.12,2.71-4.66,4.09H346c1.54-1.17,2.9-2.74,4.63-3.44,33.95-13.94,63.9-33.57,89.7-59.95A262.38,262.38,0,0,0,493.62,357c1.68-3.85,4.12-7.37,6.21-11Z"/><path class="cls-8" d="M12.17,141c1.7-2.18,3.81-4.15,5-6.57A263.17,263.17,0,0,1,133.09,17.88c2.86-1.47,5.28-3.79,7.91-5.71h15c-1.47,1.19-2.77,2.76-4.44,3.52C109.06,35,73.13,62.42,45.36,100.18,33.47,116.34,24.06,133.94,15.49,152c-.72,1.51-2.2,2.66-3.32,4Z"/><path class="cls-5" d="M129,499.83H113a38.49,38.49,0,0,0-3.75-3.7c-14.19-10.71-29.13-20.55-42.48-32.21-20.39-17.81-37.25-38.87-51.4-62-.72-1.18-2.12-1.94-3.2-2.89V383c1.15,1.1,2.68,2,3.42,3.33a274.15,274.15,0,0,0,52.92,68.74,277.46,277.46,0,0,0,50.24,37.38C122.37,494.56,125.59,497.36,129,499.83Z"/><path class="cls-9" d="M397,499.83c2-1.71,3.76-3.74,6-5.07a257.29,257.29,0,0,0,60.44-50c11-12.54,20.23-26.68,30.29-40.08,2-2.61,4.08-5.11,6.13-7.66v22q-24.25,24.11-48.52,48.21C440.48,478,429.77,489,419,499.83Z"/><path class="cls-4" d="M129,499.83c-3.41-2.47-6.63-5.27-10.25-7.38a277.46,277.46,0,0,1-50.24-37.38,274.15,274.15,0,0,1-52.92-68.74c-.74-1.33-2.27-2.23-3.42-3.33V368a48.07,48.07,0,0,1,3.8,5c4.88,8.5,9.26,17.33,14.53,25.58,13.5,21.09,29.28,40.27,48.27,56.8a275.81,275.81,0,0,0,48.81,34.43c5.61,3.08,11,6.65,16.42,10Z"/><path class="cls-8" d="M372,12.17c1.55,1.38,2.89,3.16,4.68,4.09a289.31,289.31,0,0,1,58.27,40c25.26,22.38,44.92,48.9,60.56,78.62,1,1.93,2.86,3.42,4.32,5.12v15c-2.18-3.81-4.58-7.52-6.52-11.45-17.31-35-40-65.84-70.66-90.42-18.38-14.74-38-27.37-59.7-36.79-2.18-.95-4-2.76-5.95-4.17Z"/><path class="cls-8" d="M144,499.83c-5.47-3.34-10.81-6.91-16.42-10a275.81,275.81,0,0,1-48.81-34.43c-19-16.53-34.77-35.71-48.27-56.8C25.23,390.36,20.85,381.53,16,373a48.07,48.07,0,0,0-3.8-5V355c1.13,1.12,2.65,2,3.33,3.38,3.1,6.08,5.82,12.35,8.93,18.42,17.42,34,41.54,62.48,71.63,85.92a270.42,270.42,0,0,0,57.09,33.6c1.51.66,2.58,2.32,3.85,3.51Z"/><path class="cls-9" d="M12.17,399c1.08.95,2.48,1.71,3.2,2.89,14.15,23.16,31,44.22,51.4,62,13.35,11.66,28.29,21.5,42.48,32.21a38.49,38.49,0,0,1,3.75,3.7H93Q69.26,475.92,45.5,452C34.44,441,23.28,430,12.17,419Z"/><path class="cls-10" d="M499.83,346c-2.09,3.67-4.53,7.19-6.21,11a262.38,262.38,0,0,1-53.29,79.4c-25.8,26.38-55.75,46-89.7,59.95-1.73.7-3.09,2.27-4.63,3.44h-9l6.89-6.87c4.24-1.34,8.65-2.3,12.71-4.06,25-10.9,48.09-25.09,68.37-43.45,26.47-24,47.56-52,62.1-84.75,2.4-5.41,3.95-11.2,5.89-16.81l6.87-6.89Z"/><path class="cls-7" d="M12.17,156c1.12-1.32,2.6-2.47,3.32-4,8.57-18.08,18-35.68,29.87-51.84C73.13,62.42,109.06,35,151.56,15.69c1.67-.76,3-2.33,4.44-3.52h12c-4.53,2.5-8.89,5.41-13.63,7.44-41.2,17.58-75,44.67-102.55,79.73-15,19.11-26.3,40.41-35.54,62.84-.88,2.14-2.72,3.89-4.11,5.82Z"/><path class="cls-7" d="M357,12.17c2,1.41,3.77,3.22,5.95,4.17,21.66,9.42,41.32,22.05,59.7,36.79,30.67,24.58,53.35,55.39,70.66,90.42,1.94,3.93,4.34,7.64,6.52,11.45v12c-1.34-2-3.1-3.85-3.95-6a249,249,0,0,0-47.83-77.24c-27.22-30-59.49-53.06-97.48-67.77-2-.79-3.72-2.5-5.57-3.78Z"/><path class="cls-7" d="M157,499.83c-1.27-1.19-2.34-2.85-3.85-3.51a270.42,270.42,0,0,1-57.09-33.6C66,439.28,41.85,410.81,24.43,376.8c-3.11-6.07-5.83-12.34-8.93-18.42-.68-1.34-2.2-2.26-3.33-3.38V342a26.29,26.29,0,0,1,3.05,4.27c4.11,9.09,7.5,18.55,12.21,27.3,15.54,28.9,34.7,55,60,76.39,20.57,17.4,42.93,31.81,67.79,42.34,5.09,2.16,9.89,5,14.83,7.53Z"/><path class="cls-10" d="M345,12.17c1.85,1.28,3.53,3,5.57,3.78,38,14.71,70.26,37.75,97.48,67.77A249,249,0,0,1,495.88,161c.85,2.19,2.61,4,3.95,6v8L494,169.11c-.53-2.42-.62-5.05-1.67-7.22-5.94-12.27-11.43-24.83-18.32-36.56-25.85-44.06-62.56-76.52-108.29-98.85-7.24-3.54-15.18-5.66-22.79-8.44L337,12.17Z"/><path class="cls-10" d="M170,499.83c-4.94-2.53-9.74-5.37-14.83-7.53C130.31,481.77,108,467.36,87.38,450,62.13,428.6,43,402.47,27.43,373.57c-4.71-8.75-8.1-18.21-12.21-27.3A26.29,26.29,0,0,0,12.17,342l.83-3.17,7,6.06a61.64,61.64,0,0,0,1.83,7.7c7.17,19,17.51,36.28,29.35,52.65,12.35,17.05,26.58,32.55,43.14,45.46a399,399,0,0,0,42.92,29.05c9.17,5.39,19.84,8.23,29.83,12.21l7.89,7.87Z"/><path class="cls-10" d="M12.17,168c1.39-1.93,3.23-3.68,4.11-5.82,9.24-22.43,20.51-43.73,35.54-62.84,27.56-35.06,61.35-62.15,102.55-79.73,4.74-2,9.1-4.94,13.63-7.44h7L168.11,19c-2.41.48-5,.61-7.22,1.5A237.32,237.32,0,0,0,89,64.68c-26.79,24-48.83,51.71-63.62,84.73-2.68,6-4.27,12.46-6.36,18.7L12.17,175Z"/><path class="cls-1" d="M337,93.83,418,94l.21,81V337L418,418l-81,.21H175L94,418l-.21-81V327c.06-15.11.17-30.23.16-45.34q0-48.33-.16-96.66V175L94,94l81-.21h18c6,.06,11.95.17,17.92.16q54-.06,108.08-.16Zm-82,81.34H175.17V336.83H336.83V175.17H255Z"/><path class="cls-11" d="M93.83,175v10c-1.28,1.85-3,3.53-3.78,5.56-9.32,23-12.8,46.94-12.11,71.67a172.69,172.69,0,0,0,12.63,60.61c.64,1.57,2.16,2.78,3.26,4.16v10L73.89,317.05c-.48-3.38-.92-6.76-1.45-10.13C70,291,66.23,275.21,65.34,259.23c-1-18.09,2-36.1,6.9-53.68,1-3.42,1.12-7.06,1.65-10.6Z"/><path class="cls-12" d="M73.89,195c-.53,3.54-.7,7.18-1.65,10.6-4.88,17.58-7.91,35.59-6.9,53.68.89,16,4.64,31.8,7.1,47.69.53,3.37,1,6.75,1.45,10.13L56,299.11c-.22-2.64-.29-5.3-.67-7.92-2.45-16.62-4.67-33.23-2.39-50.1,1.26-9.37,2.05-18.8,3.06-28.2Z"/><path class="cls-13" d="M161.05,26.11,151.11,36c-1.91.5-4,.69-5.72,1.55A239.88,239.88,0,0,0,86.88,78.77,237.12,237.12,0,0,0,43,135.27c-2.8,5-4.66,10.55-7,15.84l-9.94,9.94c1.59-4.93,2.58-10.16,4.87-14.74A253.56,253.56,0,0,1,83.9,74.42,248.71,248.71,0,0,1,155,27.11C156.79,26.31,159,26.42,161.05,26.11Z"/><path class="cls-13" d="M149.11,474l11,11a26.37,26.37,0,0,1-5.31-1.13,244.2,244.2,0,0,1-67.76-44.39,251.24,251.24,0,0,1-53.67-70.91c-2.7-5.25-4.26-11.09-6.34-16.65l11,11a46,46,0,0,0,2.22,6.53,230.24,230.24,0,0,0,51.68,67.17c15.58,14,32.32,26.09,51.08,35.37A43.39,43.39,0,0,0,149.11,474Z"/><path class="cls-14" d="M36,151.11c2.3-5.29,4.16-10.83,7-15.84a237.12,237.12,0,0,1,43.88-56.5,239.88,239.88,0,0,1,58.51-41.18c1.73-.86,3.81-1.05,5.72-1.55l-16,16c-2.58,1-5.42,1.65-7.72,3.12a233.54,233.54,0,0,0-72.23,72.23c-1.47,2.3-2.1,5.14-3.12,7.72Z"/><path class="cls-15" d="M56,212.89c-1,9.4-1.8,18.83-3.06,28.2-2.28,16.87-.06,33.48,2.39,50.1.38,2.62.45,5.28.67,7.92l-16-16V228.89Z"/><path class="cls-14" d="M149.11,474a43.39,43.39,0,0,1-6.09-2c-18.76-9.28-35.5-21.41-51.08-35.37a230.24,230.24,0,0,1-51.68-67.17A46,46,0,0,1,38,362.89l15,15c.83,2.13,1.33,4.47,2.54,6.36a237.06,237.06,0,0,0,72.17,72.17c1.89,1.21,4.23,1.71,6.36,2.54Z"/><path class="cls-16" d="M27,351.88c2.08,5.56,3.64,11.4,6.34,16.65a251.24,251.24,0,0,0,53.67,70.91,244.2,244.2,0,0,0,67.76,44.39,26.37,26.37,0,0,0,5.31,1.13l7,7c-10-4-20.66-6.82-29.83-12.21A399,399,0,0,1,94.36,450.7c-16.56-12.91-30.79-28.41-43.14-45.46C39.38,388.87,29,371.59,21.87,352.59a61.64,61.64,0,0,1-1.83-7.7Z"/><path class="cls-16" d="M161.05,26.11c-2,.31-4.26.2-6.09,1A248.71,248.71,0,0,0,83.9,74.42,253.56,253.56,0,0,0,31,146.31c-2.29,4.58-3.28,9.81-4.87,14.74L19,168.11c2.09-6.24,3.68-12.71,6.36-18.7,14.79-33,36.83-60.77,63.62-84.73a237.32,237.32,0,0,1,71.87-44.14c2.26-.89,4.81-1,7.22-1.5Z"/><path class="cls-17" d="M52,135.11c1-2.58,1.65-5.42,3.12-7.72a233.54,233.54,0,0,1,72.23-72.23c2.3-1.47,5.14-2.1,7.72-3.12Q116.36,71,97.6,89.93c-1.27,1.29-2.43,2.69-3.63,4q-18.07,17.85-36.15,35.7C55.94,131.53,54,133.3,52,135.11Z"/><path class="cls-17" d="M134.11,459c-2.13-.83-4.47-1.33-6.36-2.54a237.06,237.06,0,0,1-72.17-72.17c-1.21-1.89-1.71-4.23-2.54-6.36q18.43,18.25,36.88,36.51c1.29,1.27,2.7,2.42,4,3.63q17.34,17.57,34.69,35.14C130.52,455.06,132.3,457,134.11,459Z"/><path class="cls-18" d="M40,228.89v54.22L25.89,269.05V243Z"/><path class="cls-17" d="M25.89,243v26.1L13.6,255.8Z"/><path class="cls-12" d="M318.12,437l-16,16c-3,.28-6,.35-8.9.88a203.32,203.32,0,0,1-57.12,2.2c-8.75-.89-17.47-2-26.2-3.08l-16-16a61.41,61.41,0,0,1,7.32,1.22c30.56,8.79,61.42,10.5,92.63,4C301.94,440.61,310,438.79,318.12,437Z"/><path class="cls-11" d="M318.12,437c-8.1,1.75-16.18,3.57-24.29,5.25-31.21,6.47-62.07,4.76-92.63-4a61.41,61.41,0,0,0-7.32-1.22l-14-14a60.88,60.88,0,0,1,6.78,1.44c6.32,2.08,12.49,4.67,18.88,6.47,37.8,10.65,75.25,9.56,112.31-3.67,4.67-1.67,9.51-2.84,14.27-4.24Z"/><path class="cls-19" d="M332.12,423c-4.76,1.4-9.6,2.57-14.27,4.24-37.06,13.23-74.51,14.32-112.31,3.67-6.39-1.8-12.56-4.39-18.88-6.47a60.88,60.88,0,0,0-6.78-1.44L175,418.17h20c1.74,1.13,3.33,2.71,5.23,3.33,21.51,7,43.43,10.29,66.18,8.69a179.9,179.9,0,0,0,45.36-8.69c1.9-.64,3.49-2.2,5.23-3.33h20Z"/><path class="cls-13" d="M474,362.83l11-10.95c-.42,1.93-.52,4-1.3,5.77a246.32,246.32,0,0,1-54.45,77.85C409.9,454.22,388,469,364.05,480.88c-3.8,1.88-8.1,2.75-12.17,4.08l10.95-11c4-1.51,8.26-2.53,11.92-4.61,24-13.67,45.48-30.4,63.79-51.26a254.67,254.67,0,0,0,33.2-47.78C473,368.09,473.27,365.35,474,362.83Z"/><path class="cls-14" d="M474,362.83c-.73,2.52-1.05,5.26-2.26,7.52a254.67,254.67,0,0,1-33.2,47.78c-18.31,20.86-39.8,37.59-63.79,51.26-3.66,2.08-7.93,3.1-11.92,4.61l15.06-15c2.27-.92,4.75-1.52,6.78-2.82A234.17,234.17,0,0,0,449.15,395c3.83-5.3,6.57-11.4,9.81-17.13Z"/><path class="cls-16" d="M351.88,485c4.07-1.33,8.37-2.2,12.17-4.08,24-11.85,45.85-26.66,65.16-45.38a246.32,246.32,0,0,0,54.45-77.85c.78-1.77.88-3.84,1.3-5.77l8-8c-1.94,5.61-3.49,11.4-5.89,16.81-14.54,32.74-35.63,60.78-62.1,84.75C404.69,463.81,381.65,478,356.6,488.9c-4.06,1.76-8.47,2.72-12.71,4.06Z"/><path class="cls-20" d="M209.89,453c8.73,1,17.45,2.19,26.2,3.08a203.32,203.32,0,0,0,57.12-2.2c2.93-.53,5.93-.6,8.9-.88l-13,13a37.36,37.36,0,0,0-4.34-.46q-25.78.2-51.58.46c-3.43,0-6.86,0-10.29,0Z"/><path class="cls-17" d="M459,377.89c-3.24,5.73-6,11.83-9.81,17.13a234.17,234.17,0,0,1-64.48,61.12c-2,1.3-4.51,1.9-6.78,2.82q18.25-18.43,36.51-36.88c1.27-1.29,2.42-2.7,3.63-4.05q17.57-17.34,35.14-34.69C455.06,381.48,457,379.7,459,377.89Z"/><path class="cls-15" d="M222.89,466.05c3.43,0,6.86,0,10.29,0q25.79-.23,51.58-.46a37.36,37.36,0,0,1,4.34.46l-11,11c-4.29,0-8.58-.05-12.87-.05l-31.35.05Q228.39,471.54,222.89,466.05Z"/><path class="cls-18" d="M233.89,477.05l31.35-.05c4.29,0,8.58,0,12.87.05L256,498.16Z"/><path class="cls-12" d="M456,299.11l-19,19c.56-2.93.91-5.92,1.73-8.77a191.91,191.91,0,0,0,3.73-91.2C440.91,210,438.87,202,437,193.88l19,19c.14,2,.12,4,.45,6,3,17.92,4.91,35.88,2.59,54.06C458,281.63,457.05,290.38,456,299.11Z"/><path class="cls-15" d="M456,299.11c1-8.73,1.92-17.48,3-26.21,2.32-18.18.43-36.14-2.59-54.06-.33-2-.31-4-.45-6L477.11,234a52.77,52.77,0,0,0-1,7.22q-.18,14.84,0,29.65a54.27,54.27,0,0,0,1,7.23Z"/><path class="cls-11" d="M437,193.88c1.83,8.09,3.87,16.14,5.46,24.27a191.91,191.91,0,0,1-3.73,91.2c-.82,2.85-1.17,5.84-1.73,8.77l-14,14c2.61-7.87,5.5-15.65,7.78-23.61,5.79-20.22,9.43-40.81,7.08-61.9-1.51-13.48-3.61-26.94-6.44-40.2-1.92-9-5.55-17.7-8.42-26.53Z"/><path class="cls-19" d="M423,179.88c2.87,8.83,6.5,17.5,8.42,26.53,2.83,13.26,4.93,26.72,6.44,40.2,2.35,21.09-1.29,41.68-7.08,61.9-2.28,8-5.17,15.74-7.78,23.61L418.17,337V318c1.16-1.49,2.83-2.8,3.41-4.48q19.57-57.49,0-115c-.58-1.69-2.25-3-3.41-4.48V175Z"/><path class="cls-14" d="M371.89,47l-14-14c2.71.73,5.62,1,8.08,2.26a243.28,243.28,0,0,1,59.85,42c17.57,16.78,32.68,35.55,44.48,56.81,3.51,6.31,5.82,13.29,8.67,20l-14-14c-.84-2.31-1.33-4.83-2.56-6.9A240,240,0,0,0,384.31,53C380.47,50.52,376,49,371.89,47Z"/><path class="cls-17" d="M371.89,47c4.15,2,8.58,3.48,12.42,5.93a240,240,0,0,1,78.09,80.24c1.23,2.07,1.72,4.59,2.56,6.9q-21.43-21.26-42.88-42.51c-1.29-1.27-2.7-2.42-4.05-3.63Q399.1,74.82,380.16,55.65C377.37,52.82,374.64,49.91,371.89,47Z"/><path class="cls-21" d="M479,154.12c-2.85-6.68-5.16-13.66-8.67-20-11.8-21.26-26.91-40-44.48-56.81A243.28,243.28,0,0,0,366,35.3c-2.46-1.23-5.37-1.53-8.08-2.26l-9-9a33.25,33.25,0,0,1,5.32,1.26,240.86,240.86,0,0,1,70.36,44.83c21,19.08,38.58,40.93,51.77,66.09,4.52,8.62,7.79,17.91,11.63,26.9Z"/><path class="cls-16" d="M488,163.12c-3.84-9-7.11-18.28-11.63-26.9-13.19-25.16-30.8-47-51.77-66.09A240.86,240.86,0,0,0,354.2,25.3,33.25,33.25,0,0,0,348.88,24l-6-6c7.61,2.78,15.55,4.9,22.79,8.44C411.41,48.81,448.12,81.27,474,125.33c6.89,11.73,12.38,24.29,18.32,36.56,1,2.17,1.14,4.8,1.67,7.22Z"/><path class="cls-18" d="M477.11,278.05a54.27,54.27,0,0,1-1-7.23q-.18-14.82,0-29.65a52.77,52.77,0,0,1,1-7.22l21,22.14Z"/><path class="cls-19" d="M337,93.83H319c-1.64-1.21-3.1-2.93-4.94-3.56a174.05,174.05,0,0,0-67.46-9.48,179.09,179.09,0,0,0-48.66,9.48c-1.84.64-3.3,2.35-4.94,3.56H175L188.89,80l7.28-1.52c15.28-3.14,30.44-7.67,45.88-9.1a171.09,171.09,0,0,1,68,7.4c4.25,1.35,8.68,2.16,13,3.22Z"/><path class="cls-22" d="M323.11,80c-4.34-1.06-8.77-1.87-13-3.22a171.09,171.09,0,0,0-68-7.4c-15.44,1.43-30.6,6-45.88,9.1L188.89,80,208,60.89c2.57-.1,5.16-.06,7.71-.33,10.71-1.14,21.38-2.87,32.11-3.45a189.45,189.45,0,0,1,52,4c1.34.31,2.84-.15,4.27-.26Z"/><path class="cls-20" d="M304.05,60.89c-1.43.11-2.93.57-4.27.26a189.45,189.45,0,0,0-52-4c-10.73.58-21.4,2.31-32.11,3.45-2.55.27-5.14.23-7.71.33L220.89,48c10.71-.65,21.42-1.86,32.13-1.82,12.7,0,25.4,1.17,38.09,1.82Z"/><path class="cls-15" d="M291.11,48c-12.69-.65-25.39-1.77-38.09-1.82-10.71,0-21.42,1.17-32.13,1.82l12-12a18,18,0,0,0,3.84.76c10.88-.18,21.77-.47,32.66-.7,3.24-.06,6.48,0,9.72-.06Z"/><path class="cls-18" d="M279.11,36c-3.24,0-6.48,0-9.72.06-10.89.23-21.78.52-32.66.7a18,18,0,0,1-3.84-.76L256,13.88Z"/><path class="cls-2" d="M336.83,257v79.83H257c1.22-1.33,2.4-2.7,3.67-4q16.71-16.92,33.45-33.81l4.92-4.92c1.33-1.22,2.7-2.4,4-3.67Q319.94,273.74,336.83,257Z"/><path class="cls-2" d="M255,336.83H175.17V257c1.33,1.22,2.7,2.4,4,3.67q16.92,16.71,33.81,33.45l4.92,4.92c1.22,1.33,2.4,2.7,3.67,4Q238.26,319.94,255,336.83Z"/><path class="cls-2" d="M257,175.17h79.83V255c-1.33-1.22-2.7-2.4-4-3.67Q315.93,234.62,299,217.88L294.12,213c-1.22-1.33-2.4-2.7-3.67-4Q273.74,192.07,257,175.17Z"/><path class="cls-2" d="M175.17,255V175.17H255c-1.22,1.33-2.4,2.7-3.67,4Q234.62,196.07,217.88,213L213,217.88c-1.33,1.22-2.7,2.4-4,3.67Q192.07,238.26,175.17,255Z"/><path class="cls-23" d="M93.83,327c-1.1-1.38-2.62-2.59-3.26-4.16a172.69,172.69,0,0,1-12.63-60.61c-.69-24.73,2.79-48.68,12.11-71.67.82-2,2.5-3.71,3.78-5.56q.09,48.33.16,96.66C94,296.77,93.89,311.89,93.83,327Z"/><path class="cls-23" d="M193,93.83c1.64-1.21,3.1-2.92,4.94-3.56a179.09,179.09,0,0,1,48.66-9.48,174.05,174.05,0,0,1,67.46,9.48c1.84.63,3.3,2.35,4.94,3.56q-54,.09-108.08.16C205,94,199,93.89,193,93.83Z"/><path class="cls-23" d="M418.17,194c1.16,1.49,2.83,2.79,3.41,4.48q19.57,57.5,0,115c-.58,1.68-2.25,3-3.41,4.48Z"/><path class="cls-23" d="M317,418.17c-1.74,1.13-3.33,2.69-5.23,3.33a179.9,179.9,0,0,1-45.36,8.69c-22.75,1.6-44.67-1.7-66.18-8.69-1.9-.62-3.49-2.2-5.23-3.33Z"/><path class="cls-24" d="M255,336.83q-16.73-16.9-33.45-33.8c-1.27-1.29-2.45-2.66-3.67-4a23.86,23.86,0,0,1,4.5,1.84C244,315.29,265.85,315.79,288,302a60,60,0,0,1,6.15-3q-16.72,16.9-33.45,33.81c-1.27,1.28-2.45,2.65-3.67,4Z"/><path class="cls-24" d="M299,217.88q16.9,16.73,33.81,33.45c1.28,1.27,2.65,2.45,4,3.67v2q-16.9,16.72-33.8,33.45c-1.29,1.27-2.66,2.45-4,3.67a23.86,23.86,0,0,1,1.84-4.5C315.29,268,315.79,246.15,302,224A58,58,0,0,1,299,217.88Z"/><path class="cls-24" d="M175.17,255q16.91-16.73,33.8-33.45c1.29-1.27,2.66-2.45,4-3.67a23.86,23.86,0,0,1-1.84,4.5C196.71,244,196.21,265.85,210,288a58,58,0,0,1,3,6.15q-16.9-16.72-33.81-33.45c-1.28-1.27-2.65-2.45-4-3.67Z"/><path class="cls-24" d="M217.88,213q16.73-16.9,33.45-33.81c1.27-1.28,2.45-2.65,3.67-4h2q16.72,16.91,33.45,33.8c1.27,1.29,2.45,2.66,3.67,4a23.86,23.86,0,0,1-4.5-1.84C268,196.72,246.15,196.2,224,210A60,60,0,0,1,217.88,213Z"/><path class="cls-25" d="M217.88,213a60,60,0,0,0,6.15-3c22.12-13.8,44-13.28,65.59,1.12a23.86,23.86,0,0,0,4.5,1.84l4.92,4.92a58,58,0,0,0,3,6.15c13.79,22.12,13.29,44-1.12,65.59a23.86,23.86,0,0,0-1.84,4.5L294.12,299a60,60,0,0,0-6.15,3c-22.12,13.79-44,13.29-65.59-1.12a23.86,23.86,0,0,0-4.5-1.84L213,294.12a58,58,0,0,0-3-6.15c-13.79-22.12-13.29-44,1.12-65.59a23.86,23.86,0,0,0,1.84-4.5Zm87,43.08c-1.61-28-21.22-48.64-49-48.59-27.32.05-48.16,20.06-48.46,48.27-.29,26.94,19.57,48.62,48.39,48.82C283.29,304.74,303.22,284.34,304.91,256Z"/><path class="cls-26" d="M304.91,256c-1.69,28.3-21.62,48.7-49.07,48.5-28.82-.2-48.68-21.88-48.39-48.82.3-28.21,21.14-48.22,48.46-48.27C283.69,207.4,303.3,228.05,304.91,256Zm-46.22,41.11c25.89-2.35,41.22-21.39,38.12-48.44-1.85-16.18-18.47-37.57-47.74-33.66-16.06,2.15-38,18.38-34,48C217.49,280.78,235.36,299.51,258.69,297.15Z"/><path class="cls-27" d="M258.69,297.15c-23.33,2.36-41.2-16.37-43.62-34.09-4-29.63,17.94-45.86,34-48,29.27-3.91,45.89,17.48,47.74,33.66C299.91,275.76,284.58,294.8,258.69,297.15Zm30.22-41c-1.56-19.44-13.3-32.64-32.93-32.65-19,0-32.22,12.39-32.53,32.2-.3,18.83,12.1,32.67,32.33,32.9C274.91,288.76,287.18,276,288.91,256.1Z"/><path class="cls-28" d="M288.91,256.1c-1.73,19.92-14,32.66-33.13,32.45-20.23-.23-32.63-14.07-32.33-32.9.31-19.81,13.54-32.22,32.53-32.2C275.61,223.46,287.35,236.66,288.91,256.1ZM255.78,281C270,281,281,270.27,281,256.22,281,242,270.27,231,256.22,231,242,231,231,241.73,231,255.78,231,270,241.73,281,255.78,281Z"/><path class="cls-29" d="M255.78,281C241.73,281,231,270,231,255.78c0-14.05,11-24.82,25.22-24.78,14,0,24.82,11,24.78,25.22C281,270.27,270,281,255.78,281ZM271,255.79A15,15,0,1,0,256.34,271,14.91,14.91,0,0,0,271,255.79Z"/><path class="cls-30" d="M271,255.79A15,15,0,1,1,255.91,241,14.91,14.91,0,0,1,271,255.79Z"/></svg>